<?xml version="1.0" encoding="UTF-8"?>
<!DOCTYPE svg PUBLIC "-//W3C//DTD SVG 1.1//EN" "http://www.w3.org/Graphics/SVG/1.1/DTD/svg11.dtd">
<!-- Creator: CorelDRAW X6 -->
<svg xmlns="http://www.w3.org/2000/svg" xml:space="preserve" width="80.5556in" height="80.5556in" version="1.1" style="shape-rendering:geometricPrecision; text-rendering:geometricPrecision; image-rendering:optimizeQuality; fill-rule:evenodd; clip-rule:evenodd"
viewBox="0 0 80556 80556"
 xmlns:xlink="http://www.w3.org/1999/xlink">
 <defs>
  <style type="text/css">
   <![CDATA[
    .fil0 {fill:#D23539;fill-rule:nonzero}
    .fil1 {fill:#FEFEFE;fill-rule:nonzero}
   ]]>
  </style>
 </defs>
 <g id="Layer_x0020_1">
  <metadata id="CorelCorpID_0Corel-Layer"/>
  <path class="fil0" d="M75000 40278c0,19177 -15546,34722 -34722,34722 -19177,0 -34722,-15546 -34722,-34722 0,-19176 15546,-34722 34722,-34722 19176,0 34722,15546 34722,34722z"/>
  <path class="fil1" d="M40278 43956c-6197,0 -11220,-5024 -11220,-11220 0,-6197 5024,-11220 11220,-11220 6197,0 11220,5023 11220,11220 0,6197 -5023,11220 -11220,11220zm17978 -11220c0,-9929 -8049,-17978 -17978,-17978 -9929,0 -17978,8049 -17978,17978 0,0 -332,16489 17978,33063 18310,-16575 17978,-33063 17978,-33063z"/>
 </g>
</svg>
