<?xml version="1.0" encoding="UTF-8" standalone="no"?>
<!DOCTYPE svg PUBLIC "-//W3C//DTD SVG 1.1//EN" "http://www.w3.org/Graphics/SVG/1.1/DTD/svg11.dtd">
<svg version="1.1" xmlns="http://www.w3.org/2000/svg" xmlns:xlink="http://www.w3.org/1999/xlink" preserveAspectRatio="xMidYMid meet" viewBox="0 0 640 640" width="640" height="640"><defs><path d="M319.95 102.23L325.86 102.82L331.69 103.64L337.45 104.68L343.13 105.94L348.73 107.41L354.23 109.09L359.64 110.98L364.95 113.06L370.15 115.34L375.24 117.82L380.22 120.47L385.08 123.31L389.82 126.33L394.43 129.52L398.91 132.87L403.25 136.39L407.45 140.07L411.5 143.9L415.4 147.88L419.14 152L422.72 156.26L426.14 160.66L429.38 165.19L432.45 169.85L435.34 174.62L438.05 179.52L440.56 184.52L442.88 189.63L445.01 194.85L446.93 200.16L448.64 205.56L450.14 211.06L451.42 216.64L452.48 222.3L453.31 228.03L453.91 233.84L454.27 239.7L454.39 245.64L454.27 251.57L453.91 257.45L453.31 263.29L452.48 269.09L451.42 274.87L450.14 280.62L448.64 286.36L446.93 292.08L445.01 297.81L442.88 303.53L440.56 309.27L438.05 315.03L435.34 320.81L432.45 326.62L429.38 332.47L426.14 338.36L422.72 344.31L419.14 350.31L415.4 356.38L411.5 362.52L407.45 368.74L403.25 375.04L398.91 381.43L394.43 387.93L389.82 394.52L385.08 401.23L380.22 408.06L375.24 415.01L370.15 422.1L364.95 429.32L359.64 436.69L354.23 444.21L348.73 451.89L343.13 459.74L337.45 467.76L331.69 475.96L325.86 484.34L319.95 492.92L313.98 501.69L307.94 510.68L301.9 501.69L295.93 492.92L290.02 484.34L284.18 475.96L278.42 467.76L272.74 459.74L267.15 451.89L261.65 444.21L256.24 436.69L250.93 429.32L245.73 422.1L240.64 415.01L235.66 408.06L230.79 401.23L226.06 394.52L221.45 387.93L216.97 381.43L212.63 375.04L208.43 368.74L204.38 362.52L200.48 356.38L196.74 350.31L193.16 344.31L189.74 338.36L186.5 332.47L183.43 326.62L180.54 320.81L177.83 315.03L175.32 309.27L173 303.53L170.87 297.81L168.95 292.08L167.24 286.36L165.74 280.62L164.46 274.87L163.4 269.09L162.57 263.29L161.97 257.45L161.61 251.57L161.49 245.64L161.61 239.7L161.97 233.84L162.57 228.03L163.4 222.3L164.46 216.64L165.74 211.06L167.24 205.56L168.95 200.16L170.87 194.85L173 189.63L175.32 184.52L177.83 179.52L180.54 174.62L183.43 169.85L186.5 165.19L189.74 160.66L193.16 156.26L196.74 152L200.48 147.88L204.38 143.9L208.43 140.07L212.63 136.39L216.97 132.87L221.45 129.52L226.06 126.33L230.79 123.31L235.66 120.47L240.64 117.82L245.73 115.34L250.93 113.06L256.24 110.98L261.65 109.09L267.15 107.41L272.74 105.94L278.42 104.68L284.18 103.64L290.02 102.82L295.93 102.23L301.9 101.88L307.94 101.76L313.98 101.88L319.95 102.23ZM302.25 170.14L299.45 170.41L296.69 170.8L293.96 171.29L291.27 171.89L288.62 172.59L286.01 173.38L283.45 174.28L280.94 175.27L278.47 176.35L276.06 177.52L273.7 178.78L271.4 180.12L269.15 181.55L266.97 183.06L264.85 184.65L262.79 186.32L260.8 188.06L258.89 189.87L257.04 191.76L255.27 193.71L253.57 195.73L251.95 197.81L250.41 199.96L248.96 202.16L247.59 204.43L246.31 206.74L245.12 209.11L244.02 211.53L243.01 214L242.1 216.52L241.29 219.08L240.58 221.69L239.98 224.33L239.47 227.01L239.08 229.72L238.8 232.47L238.62 235.25L238.57 238.06L238.62 240.87L238.8 243.65L239.08 246.4L239.47 249.12L239.98 251.8L240.58 254.44L241.29 257.04L242.1 259.6L243.01 262.12L244.02 264.59L245.12 267.01L246.31 269.38L247.59 271.7L248.96 273.96L250.41 276.17L251.95 278.31L253.57 280.4L255.27 282.42L257.04 284.37L258.89 286.25L260.8 288.07L262.79 289.81L264.85 291.48L266.97 293.07L269.15 294.58L271.4 296.01L273.7 297.35L276.06 298.61L278.47 299.78L280.94 300.86L283.45 301.85L286.01 302.74L288.62 303.54L291.27 304.24L293.96 304.83L296.69 305.32L299.45 305.71L302.25 305.99L305.08 306.16L307.94 306.22L310.8 306.16L313.63 305.99L316.43 305.71L319.19 305.32L321.92 304.83L324.61 304.24L327.26 303.54L329.87 302.74L332.43 301.85L334.94 300.86L337.41 299.78L339.82 298.61L342.18 297.35L344.48 296.01L346.73 294.58L348.91 293.07L351.03 291.48L353.09 289.81L355.07 288.07L356.99 286.25L358.84 284.37L360.61 282.42L362.31 280.4L363.93 278.31L365.46 276.17L366.92 273.96L368.29 271.7L369.57 269.38L370.76 267.01L371.86 264.59L372.87 262.12L373.77 259.6L374.59 257.04L375.3 254.44L375.9 251.8L376.4 249.12L376.8 246.4L377.08 243.65L377.25 240.87L377.31 238.06L377.25 235.25L377.08 232.47L376.8 229.72L376.4 227.01L375.9 224.33L375.3 221.69L374.59 219.08L373.77 216.52L372.87 214L371.86 211.53L370.76 209.11L369.57 206.74L368.29 204.43L366.92 202.16L365.46 199.96L363.93 197.81L362.31 195.73L360.61 193.71L358.84 191.76L356.99 189.87L355.07 188.06L353.09 186.32L351.03 184.65L348.91 183.06L346.73 181.55L344.48 180.12L342.18 178.78L339.82 177.52L337.41 176.35L334.94 175.27L332.43 174.28L329.87 173.38L327.26 172.59L324.61 171.89L321.92 171.29L319.19 170.8L316.43 170.41L313.63 170.14L310.8 169.97L307.94 169.91L305.08 169.97L302.25 170.14Z" id="b5KWPmCXsN"></path><path d="M378.01 237.87C378.01 275.59 346.61 306.22 307.94 306.22C269.27 306.22 237.87 275.59 237.87 237.87C237.87 200.15 269.27 169.53 307.94 169.53C346.61 169.53 378.01 200.15 378.01 237.87Z" id="l2gI4hNNO4"></path><path d="M327.59 174.13L327.69 174.14L327.78 174.15L327.88 174.17L327.97 174.19L328.07 174.22L328.16 174.25L328.25 174.28L328.34 174.31L328.42 174.35L328.51 174.39L328.59 174.44L328.67 174.49L328.75 174.54L328.83 174.59L328.9 174.65L328.97 174.71L329.04 174.77L329.11 174.83L329.17 174.9L329.24 174.97L329.29 175.04L329.35 175.12L329.41 175.19L329.46 175.27L329.5 175.35L329.55 175.44L329.59 175.52L329.63 175.61L329.67 175.7L329.7 175.78L329.73 175.88L329.75 175.97L329.77 176.06L329.79 176.16L329.8 176.26L329.81 176.35L329.82 176.45L329.82 176.55L329.82 225.18L378.45 225.18L378.55 225.18L378.65 225.19L378.74 225.2L378.84 225.21L378.94 225.23L379.03 225.25L379.12 225.27L379.22 225.3L379.3 225.33L379.39 225.37L379.48 225.41L379.56 225.45L379.65 225.5L379.73 225.54L379.81 225.59L379.88 225.65L379.96 225.71L380.03 225.76L380.1 225.83L380.17 225.89L380.23 225.96L380.29 226.03L380.35 226.1L380.41 226.17L380.46 226.25L380.51 226.33L380.56 226.41L380.61 226.49L380.65 226.58L380.69 226.66L380.72 226.75L380.75 226.84L380.78 226.93L380.81 227.03L380.83 227.12L380.85 227.22L380.86 227.31L380.87 227.41L380.88 227.51L380.88 227.61L380.88 266.51L380.88 266.61L380.87 266.71L380.86 266.81L380.85 266.91L380.83 267L380.81 267.1L380.78 267.19L380.75 267.28L380.72 267.37L380.69 267.46L380.65 267.54L380.61 267.63L380.56 267.71L380.51 267.79L380.46 267.87L380.41 267.95L380.35 268.02L380.29 268.09L380.23 268.16L380.17 268.23L380.1 268.29L380.03 268.36L379.96 268.42L379.88 268.47L379.81 268.53L379.73 268.58L379.65 268.63L379.56 268.67L379.48 268.71L379.39 268.75L379.3 268.79L379.22 268.82L379.12 268.85L379.03 268.87L378.94 268.89L378.84 268.91L378.74 268.92L378.65 268.93L378.55 268.94L378.45 268.94L329.82 268.94L329.82 317.57L329.82 317.67L329.81 317.77L329.8 317.87L329.79 317.96L329.77 318.06L329.75 318.15L329.73 318.25L329.7 318.34L329.67 318.43L329.63 318.51L329.59 318.6L329.55 318.69L329.5 318.77L329.46 318.85L329.41 318.93L329.35 319L329.29 319.08L329.24 319.15L329.17 319.22L329.11 319.29L329.04 319.35L328.97 319.41L328.9 319.47L328.83 319.53L328.75 319.58L328.67 319.64L328.59 319.68L328.51 319.73L328.42 319.77L328.34 319.81L328.25 319.84L328.16 319.88L328.07 319.9L327.97 319.93L327.88 319.95L327.78 319.97L327.69 319.98L327.59 319.99L327.49 320L327.39 320L288.49 320L288.39 320L288.29 319.99L288.19 319.98L288.09 319.97L288 319.95L287.9 319.93L287.81 319.9L287.72 319.88L287.63 319.84L287.54 319.81L287.46 319.77L287.37 319.73L287.29 319.68L287.21 319.64L287.13 319.58L287.05 319.53L286.98 319.47L286.91 319.41L286.84 319.35L286.77 319.29L286.71 319.22L286.64 319.15L286.58 319.08L286.53 319L286.47 318.93L286.42 318.85L286.37 318.77L286.33 318.69L286.29 318.6L286.25 318.51L286.21 318.43L286.18 318.34L286.15 318.25L286.13 318.15L286.11 318.06L286.09 317.96L286.08 317.87L286.07 317.77L286.06 317.67L286.06 317.57L286.06 268.94L237.43 268.94L237.33 268.94L237.23 268.93L237.13 268.92L237.04 268.91L236.94 268.89L236.85 268.87L236.75 268.85L236.66 268.82L236.57 268.79L236.49 268.75L236.4 268.71L236.31 268.67L236.23 268.63L236.15 268.58L236.07 268.53L236 268.47L235.92 268.42L235.85 268.36L235.78 268.29L235.71 268.23L235.65 268.16L235.59 268.09L235.53 268.02L235.47 267.95L235.42 267.87L235.36 267.79L235.32 267.71L235.27 267.63L235.23 267.54L235.19 267.46L235.16 267.37L235.12 267.28L235.1 267.19L235.07 267.1L235.05 267L235.03 266.91L235.02 266.81L235.01 266.71L235 266.61L235 266.51L235 227.61L235 227.51L235.01 227.41L235.02 227.31L235.03 227.22L235.05 227.12L235.07 227.03L235.1 226.93L235.12 226.84L235.16 226.75L235.19 226.66L235.23 226.58L235.27 226.49L235.32 226.41L235.36 226.33L235.42 226.25L235.47 226.17L235.53 226.1L235.59 226.03L235.65 225.96L235.71 225.89L235.78 225.83L235.85 225.76L235.92 225.71L236 225.65L236.07 225.59L236.15 225.54L236.23 225.5L236.31 225.45L236.4 225.41L236.49 225.37L236.57 225.33L236.66 225.3L236.75 225.27L236.85 225.25L236.94 225.23L237.04 225.21L237.13 225.2L237.23 225.19L237.33 225.18L237.43 225.18L286.06 225.18L286.06 176.55L286.06 176.45L286.07 176.35L286.08 176.26L286.09 176.16L286.11 176.06L286.13 175.97L286.15 175.88L286.18 175.78L286.21 175.7L286.25 175.61L286.29 175.52L286.33 175.44L286.37 175.35L286.42 175.27L286.47 175.19L286.53 175.12L286.58 175.04L286.64 174.97L286.71 174.9L286.77 174.83L286.84 174.77L286.91 174.71L286.98 174.65L287.05 174.59L287.13 174.54L287.21 174.49L287.29 174.44L287.37 174.39L287.46 174.35L287.54 174.31L287.63 174.28L287.72 174.25L287.81 174.22L287.9 174.19L288 174.17L288.09 174.15L288.19 174.14L288.29 174.13L288.39 174.12L288.49 174.12L327.39 174.12L327.49 174.12L327.59 174.13Z" id="kYITyVsLs"></path></defs><g><g><g><g><g><use xlink:href="#b5KWPmCXsN" opacity="1" fill="#04acce" fill-opacity="1"></use></g><g><use xlink:href="#l2gI4hNNO4" opacity="1" fill="#04acce" fill-opacity="1"></use></g></g><g><use xlink:href="#kYITyVsLs" opacity="1" fill="#bd3333" fill-opacity="1"></use><g><use xlink:href="#kYITyVsLs" opacity="1" fill-opacity="0" stroke="#ffffff" stroke-width="1" stroke-opacity="1"></use></g></g></g></g></g></svg>